<svg width="119" height="37" viewBox="0 0 119 37" fill="none" xmlns="http://www.w3.org/2000/svg">
<rect width="119" height="37" fill="#91D5FF"/>
<path d="M43.4261 16C43.0483 13.9119 41.3778 12.679 39.3295 12.679C36.7244 12.679 34.8352 14.6875 34.8352 17.9091C34.8352 21.1307 36.7244 23.1392 39.3295 23.1392C41.3778 23.1392 43.0483 21.9062 43.4261 19.8182H42.1932C41.8949 21.2301 40.6818 21.9858 39.3295 21.9858C37.4801 21.9858 36.0284 20.554 36.0284 17.9091C36.0284 15.2642 37.4801 13.8324 39.3295 13.8324C40.6818 13.8324 41.8949 14.5881 42.1932 16H43.4261ZM46.4327 12.8182H45.2594V23H46.4327V12.8182ZM51.7834 23.1591C53.3345 23.1591 54.468 22.3835 54.826 21.2301L53.6925 20.9119C53.3942 21.7074 52.7031 22.1051 51.7834 22.1051C50.4062 22.1051 49.4567 21.2152 49.402 19.5795H54.9453V19.0824C54.9453 16.2386 53.255 15.2642 51.6641 15.2642C49.5959 15.2642 48.2237 16.8949 48.2237 19.2415C48.2237 21.5881 49.576 23.1591 51.7834 23.1591ZM49.402 18.5653C49.4815 17.3771 50.3217 16.3182 51.6641 16.3182C52.9368 16.3182 53.7521 17.2727 53.7521 18.5653H49.402ZM58.9773 23.179C60.3097 23.179 61.0057 22.4631 61.2443 21.9659H61.304V23H62.4773V17.9688C62.4773 15.5426 60.6278 15.2642 59.6534 15.2642C58.5 15.2642 57.1875 15.6619 56.5909 17.054L57.7045 17.4517C57.9631 16.8949 58.5746 16.2983 59.6932 16.2983C60.772 16.2983 61.304 16.87 61.304 17.8494V17.8892C61.304 18.456 60.7273 18.4062 59.3352 18.5852C57.9183 18.7692 56.3722 19.0824 56.3722 20.8324C56.3722 22.3239 57.5256 23.179 58.9773 23.179ZM59.1562 22.125C58.2216 22.125 57.5455 21.7074 57.5455 20.892C57.5455 19.9972 58.3608 19.7188 59.2756 19.5994C59.7727 19.5398 61.1051 19.4006 61.304 19.1619V20.2358C61.304 21.1903 60.5483 22.125 59.1562 22.125ZM65.7921 18.4062C65.7921 17.0739 66.6174 16.3182 67.7409 16.3182C68.8297 16.3182 69.4909 17.0291 69.4909 18.2273V23H70.6642V18.1477C70.6642 16.1989 69.6252 15.2642 68.079 15.2642C66.9256 15.2642 66.2097 15.7812 65.8517 16.5568H65.7523V15.3636H64.6188V23H65.7921V18.4062ZM74.2003 12.8182H72.9673V23H74.2003V12.8182ZM76.1156 13.9119H79.3173V23H80.5502V13.9119H83.752V12.8182H76.1156V13.9119Z" fill="black"/>
</svg>
